<?xml version="1.0" encoding="UTF-8" standalone="no"?>
<svg
   xmlns:dc="http://purl.org/dc/elements/1.1/"
   xmlns:cc="http://creativecommons.org/ns#"
   xmlns:rdf="http://www.w3.org/1999/02/22-rdf-syntax-ns#"
   xmlns:svg="http://www.w3.org/2000/svg"
   xmlns="http://www.w3.org/2000/svg"
   xmlns:sodipodi="http://sodipodi.sourceforge.net/DTD/sodipodi-0.dtd"
   xmlns:inkscape="http://www.inkscape.org/namespaces/inkscape"
   width="24"
   height="24"
   viewBox="0 0 24 24"
   preserveAspectRatio="xMinYMid meet"
   overflow="visible"
   id="svg2"
   version="1.1"
   inkscape:version="0.91 r13725"
   sodipodi:docname="icon.svg"
   inkscape:export-filename="icon.png"
   inkscape:export-xdpi="300"
   inkscape:export-ydpi="300">
  <metadata
     id="metadata78">
    <rdf:RDF>
      <cc:Work
         rdf:about="">
        <dc:format>image/svg+xml</dc:format>
        <dc:type
           rdf:resource="http://purl.org/dc/dcmitype/StillImage" />
      </cc:Work>
    </rdf:RDF>
  </metadata>
  <defs
     id="defs76" />
  <sodipodi:namedview
     pagecolor="#ffffff"
     bordercolor="#666666"
     borderopacity="1"
     objecttolerance="10"
     gridtolerance="10"
     guidetolerance="10"
     inkscape:pageopacity="0"
     inkscape:pageshadow="2"
     inkscape:window-width="1280"
     inkscape:window-height="757"
     id="namedview74"
     showgrid="false"
     inkscape:zoom="13.906433"
     inkscape:cx="17.171472"
     inkscape:cy="7.9322033"
     inkscape:window-x="0"
     inkscape:window-y="21"
     inkscape:window-maximized="1"
     inkscape:current-layer="svg2" />
  <linearGradient
     id="a"
     gradientUnits="userSpaceOnUse"
     x1="11.957"
     x2="11.957"
     y2="24">
    <stop
       offset="0"
       stop-color="#95BFF8"
       id="stop5" />
    <stop
       offset=".557"
       stop-color="#84ADEF"
       id="stop7" />
    <stop
       offset="1"
       stop-color="#7CA4EB"
       id="stop9" />
  </linearGradient>
  <linearGradient
     id="b"
     gradientUnits="userSpaceOnUse"
     x1="11.957"
     y1="1"
     x2="11.957"
     y2="23">
    <stop
       offset="0"
       stop-color="#E7F4FC"
       id="stop14" />
    <stop
       offset="1"
       stop-color="#DEEFFC"
       id="stop16" />
  </linearGradient>
  <linearGradient
     id="c"
     gradientUnits="userSpaceOnUse"
     x1="11.957"
     y1="2"
     x2="11.957"
     y2="22">
    <stop
       offset="0"
       stop-color="#CEE9F9"
       id="stop21" />
    <stop
       offset="1"
       stop-color="#BBDFF8"
       id="stop23" />
  </linearGradient>
  <linearGradient
     id="d"
     gradientUnits="userSpaceOnUse"
     x1="17.202"
     x2="17.202"
     y2="9.359">
    <stop
       offset="0"
       stop-color="#95BFF8"
       id="stop28" />
    <stop
       offset=".557"
       stop-color="#84ADEF"
       id="stop30" />
    <stop
       offset="1"
       stop-color="#7CA4EB"
       id="stop32" />
  </linearGradient>
  <linearGradient
     id="e"
     gradientUnits="userSpaceOnUse"
     x1="14.279"
     y1="7.545"
     x2="17.407"
     y2="4.417">
    <stop
       offset="0"
       stop-color="#E7F4FC"
       id="stop37" />
    <stop
       offset=".518"
       stop-color="#E5F3FC"
       id="stop39" />
    <stop
       offset=".705"
       stop-color="#DEF0FB"
       id="stop41" />
    <stop
       offset=".837"
       stop-color="#D3EBFA"
       id="stop43" />
    <stop
       offset=".872"
       stop-color="#CEE9F9"
       id="stop45" />
    <stop
       offset="1"
       stop-color="#BDD8F0"
       id="stop47" />
  </linearGradient>
  <linearGradient
     id="f"
     gradientUnits="userSpaceOnUse"
     x1="11.857"
     y1="1.852"
     x2="11.857"
     y2="23.949">
    <stop
       offset="0"
       stop-color="#DB6D17"
       id="stop52" />
    <stop
       offset="1"
       stop-color="#BF3B08"
       id="stop54" />
  </linearGradient>
  <linearGradient
     id="g"
     gradientUnits="userSpaceOnUse"
     x1="9.552"
     y1="9.008"
     x2="9.552"
     y2="22.383">
    <stop
       offset="0"
       stop-color="#F6A55E"
       id="stop59" />
    <stop
       offset="1"
       stop-color="#EA5B03"
       id="stop61" />
  </linearGradient>
  <g
     id="g4231"
     style="fill:#006666;fill-opacity:1"
     transform="matrix(1.2144212,0,0,1.2144212,-0.42282641,-0.68790737)">
    <path
       id="path10"
       d="M 5.9838513,0.5490914 C 3.3724823,0.84629904 1.2550271,2.4882221 0.54148998,4.756549 -0.04385391,6.613321 0.43191704,8.6806448 1.7763937,10.102706 l 0.292672,0.315589 -0.2742905,1.257821 c -0.1508716,0.695155 -0.2742904,1.312488 -0.2742904,1.38124 0,0.06398 0.031989,0.127954 0.068513,0.1418 0.036524,0.01385 0.6906199,-0.279065 1.4588241,-0.658631 L 4.438133,11.854441 4.808628,11.964252 C 6.0755202,12.330211 7.6990617,12.279841 8.9611797,11.840833 9.9079471,11.507101 10.795034,10.9399 11.494726,10.212756 12.491625,9.1790943 13.00392,8.0038708 13.072433,6.609024 13.182244,4.3908284 11.892435,2.3101362 9.7384552,1.2261042 9.2581486,0.98833804 8.4166571,0.70927319 7.8816833,0.62237874 7.3376381,0.53070988 6.4503122,0.49872127 5.9838513,0.5490914 Z M 7.5388799,2.9957429 C 8.6455905,3.2793435 9.4641648,4.2213365 9.6837881,5.4653117 9.857577,6.4622106 9.6608709,7.4638839 9.1485756,8.1955637 l -0.2012418,0.292672 0.3750307,0.3385064 c 0.292672,0.2606833 0.370495,0.3521134 0.3385064,0.4070193 -0.022917,0.04106 -0.1647175,0.1967061 -0.3155892,0.3430421 L 9.0709913,9.8465582 8.6410548,9.4533847 8.2111183,9.0554368 7.9642808,9.1652484 C 7.8270162,9.22469 7.5937858,9.302513 7.4429141,9.3345016 7.0542763,9.4168604 6.2309276,9.407789 5.865207,9.3163588 4.8040922,9.0418297 4.0038994,8.214184 3.7293702,7.1120091 3.6240943,6.6730012 3.6240943,5.6758636 3.7293702,5.2416301 3.8391819,4.8071579 4.118008,4.2354211 4.3741556,3.9198319 4.7857106,3.4213825 5.4854019,3.032506 6.1624146,2.9274687 c 0.3518748,-0.050609 1.0288876,-0.01862 1.3764653,0.068274 z"
       inkscape:connector-curvature="0"
       style="fill:#006666;fill-opacity:1" />
    <path
       id="path12"
       d="M 6.358882,4.0704649 C 5.5264619,4.2168008 4.9960238,5.0308394 4.9960238,6.174313 c 0,0.887326 0.3611849,1.6280773 0.9329217,1.9162135 0.2423018,0.1188831 0.74099,0.2012418 0.9832918,0.1601818 0.3430421,-0.054906 0.3430421,-0.05037 0.036524,-0.333732 L 6.6696968,7.6517573 6.957833,7.3225611 C 7.1180148,7.1442365 7.2643508,6.9979005 7.2870293,6.9979005 c 0.027453,0 0.1921704,0.1372646 0.3659593,0.3017433 C 8.032555,7.656293 8.0464008,7.6517573 8.2292611,7.1533079 8.4579558,6.5314397 8.4166571,5.5756008 8.1332952,4.9625652 7.8270162,4.2946239 7.1180148,3.9379747 6.358882,4.0704649 Z"
       inkscape:connector-curvature="0"
       style="fill:#006666;fill-opacity:1" />
  </g>
  <g
     id="g4167"
     transform="matrix(0.98530187,0,0,0.98530187,-4.6638163,1.7370519)">
    <path
       id="path14"
       d="m 21.067228,6.0583799 c -0.57375,3.8360068 -2.268945,6.2239171 -7.997214,7.3047361 0.05061,0.371909 0.763938,2.287108 1.000795,2.760528 0.490485,0.969497 1.386717,2.023731 2.271769,2.660451 0.56375,0.405747 1.459982,0.87387 2.108176,1.099252 1.555902,0.541094 3.556977,0.603177 5.118175,0.152119 l 0.451058,-0.129757 1.71361,0.834149 c 1.042761,0.512848 1.741857,0.828559 1.798055,0.806198 0.05061,-0.01707 0.09004,-0.09592 0.09004,-0.163594 0,-0.07326 -0.152119,-0.834149 -0.338368,-1.696544 l -0.337779,-1.555607 0.360729,-0.388977 C 29.194653,15.74026 29.668073,12.758507 28.484375,10.261356 27.819112,8.8578668 26.528314,7.5611842 25.034495,6.8114797 24.420138,6.5013586 23.532377,6.2407851 22.861526,6.1280941 22.203503,6.104856 21.725252,6.081618 21.067228,6.0583799 Z m 4.282495,6.5421241 c 0.77236,2.074339 1.41467,3.799131 1.431736,3.832968 0.01678,0.05649 -0.174774,0.07326 -0.851215,0.07326 l -0.873577,0 -0.276284,-0.834149 -0.281874,-0.828559 -1.437327,-0.01677 -1.437326,-0.01122 -0.298645,0.845624 -0.293056,0.845626 -0.839739,0 c -0.46224,0 -0.840034,-0.01122 -0.840034,-0.02825 0,-0.01706 0.637013,-1.708019 1.409079,-3.759703 0.777951,-2.057568 1.420555,-3.7711777 1.437326,-3.8106049 0.01677,-0.050903 0.248038,-0.067674 0.885052,-0.067674 l 0.862395,0 1.403489,3.7594089 z"
       inkscape:connector-curvature="0"
       style="fill:#004c97;fill-opacity:1"
       sodipodi:nodetypes="cccccccccscccscccccscccccccssccsccc" />
    <path
       id="path16"
       d="m 22.517971,12.177692 -0.4846,1.369652 0.963906,0.01677 c 0.524322,0.0055 0.969496,0 0.980676,-0.01122 0.03383,-0.03383 -0.896232,-2.739599 -0.94684,-2.739599 -0.01707,2.94e-4 -0.248332,0.614652 -0.513142,1.364356 z"
       inkscape:connector-curvature="0"
       style="fill:#004c97;fill-opacity:1"
       sodipodi:nodetypes="ccccccc" />
  </g>
</svg>
